<svg id="noun_Employee_3197568" xmlns="http://www.w3.org/2000/svg" width="24" height="24" viewBox="0 0 24 24">
  <metadata><?xpacket begin="﻿" id="W5M0MpCehiHzreSzNTczkc9d"?>
<x:xmpmeta xmlns:x="adobe:ns:meta/" x:xmptk="Adobe XMP Core 5.6-c142 79.160924, 2017/07/13-01:06:39        ">
   <rdf:RDF xmlns:rdf="http://www.w3.org/1999/02/22-rdf-syntax-ns#">
      <rdf:Description rdf:about=""/>
   </rdf:RDF>
</x:xmpmeta>
                                                                                                    
                                                                                                    
                                                                                                    
                                                                                                    
                                                                                                    
                                                                                                    
                                                                                                    
                                                                                                    
                                                                                                    
                                                                                                    
                                                                                                    
                                                                                                    
                                                                                                    
                                                                                                    
                                                                                                    
                                                                                                    
                                                                                                    
                                                                                                    
                                                                                                    
                                                                                                    
                           
<?xpacket end="w"?></metadata>
<defs>
    <style>
      .cls-1 {
        fill: #fff;
        fill-rule: evenodd;
      }
    </style>
  </defs>
  <path id="Path_120" data-name="Path 120" class="cls-1" d="M8.638,14.79l-1.486.375L11.881,24c0.066,0,.127,0,0.187,0h0.054l4.765-8.824L15.408,14.8a0.564,0.564,0,0,1-.374-0.279,0.389,0.389,0,0,1,.024-0.4l0.773-1.172a7.231,7.231,0,0,1-7.525.115l0.682,1.047a0.4,0.4,0,0,1,.024.408A0.588,0.588,0,0,1,8.638,14.79Z"/>
  <path id="Path_121" data-name="Path 121" class="cls-1" d="M2.726,23.508q3.887,0.411,7.836.475L5.782,15.056a0.391,0.391,0,0,1,.006-0.388,0.58,0.58,0,0,1,.365-0.258l1.432-.364L6.438,12.286l-2.444.746a3.681,3.681,0,0,0-2.621,2.459l-1.31,5.048A2.1,2.1,0,0,0,.576,22.48,3.362,3.362,0,0,0,2.726,23.508Z"/>
  <path id="Path_122" data-name="Path 122" class="cls-1" d="M16.458,14.06l1.43,0.368a0.578,0.578,0,0,1,.364.259,0.389,0.389,0,0,1,.005.388l-4.812,8.91q3.909-.06,7.826-0.453a3.364,3.364,0,0,0,2.156-1.023,2.181,2.181,0,0,0,.586-1.455,1.884,1.884,0,0,0-.06-0.485l-1.286-5.044a3.662,3.662,0,0,0-2.615-2.469L17.614,12.3Z"/>
  <path id="Path_123" data-name="Path 123" class="cls-1" d="M5.39,7.287l0.018,0.1a1.373,1.373,0,0,0,.8.946,5.864,5.864,0,0,0,11.522,0,1.35,1.35,0,0,0,.8-0.946l0.018-.1a1.214,1.214,0,0,0-.664-1.268A3.26,3.26,0,0,0,17.3,2.138C15.819,0.437,13.15-.326,10.166.106A5.13,5.13,0,0,0,6.694,1.84a4.774,4.774,0,0,0-.568,4.14A1.228,1.228,0,0,0,5.39,7.287Zm1.54-.552a0.513,0.513,0,0,0,.453-0.466V6.076A0.268,0.268,0,0,0,7.37,6.014a3.783,3.783,0,0,0,2.8-1.945,7.083,7.083,0,0,0,6.866.86,2.2,2.2,0,0,1-.392.9,0.421,0.421,0,0,0-.085.245V6.269a0.514,0.514,0,0,0,.459.466,0.385,0.385,0,0,1,.344.408l-0.018.1a0.423,0.423,0,0,1-.344.3,0.524,0.524,0,0,0-.447.437,4.765,4.765,0,0,1-4.584,4.16,4.765,4.765,0,0,1-4.584-4.16,0.517,0.517,0,0,0-.447-0.437,0.407,0.407,0,0,1-.338-0.3l-0.018-.1A0.376,0.376,0,0,1,6.929,6.734Z"/>
</svg>
