<svg xmlns="http://www.w3.org/2000/svg" viewBox="0 0 1013.66 1011.63"><defs><style>.cls-1{fill:#fff;}</style></defs><title>Asset 4</title><g id="Layer_2" data-name="Layer 2"><g id="Layer_1-2" data-name="Layer 1"><path class="cls-1" d="M0,534.45c.94-1.88,1.87-3.75,2.82-5.63a25.86,25.86,0,0,1,43-5.3,35.1,35.1,0,0,1,6.13,9.56C57.74,547.65,68.6,553.5,83.8,553c4.48-.15,9,.74,13.5,1.17,15.34,1.45,26.49,9.22,34.61,22.18q43.76,69.78,87.85,139.36c8.75,13.8,21.42,14.27,32.05,1.58q33.24-39.67,66.42-79.38c23.88-28.59,54.38-44.71,91.37-48.66,7.76-.83,13.88,2,18.77,8,10.81,13.29,21.93,26.34,32.52,39.8,9.31,11.83,20.58,20.33,36.3,23.6v351H348.6c-8.82-5.77-11-14-9.9-24.11,3.9-36.77.76-73.18-6.82-109.24-3-14.17-8.4-28-9.64-42.32-1.59-18.38-.54-37,.27-55.54.41-9.19,2.78-18.31,4.37-27.43,1.14-6.55-1.16-11.43-6.48-12.29-6-1-9.36,2.24-10.6,8-.31,1.39-.8,2.74-1.08,4.14-6.11,30.82-7.77,61.81-3.22,93,.71,4.89-.13,8.46-4,12-8.27,7.52-16.06,15.57-24,23.39-34.73,34-83.2,26.7-106.27-16q-46.26-85.67-92.43-171.37C52.37,644.53,26.25,595.17,0,545.88ZM128.48,606.1c-4.24-7.5-8-14.33-11.93-21.05-5-8.4-12.38-12.81-22.12-13.56-8.3-.65-16.57-1.53-24.85-2.39C57.3,567.84,48.34,561.5,42.15,551c-2.77-4.71-5.4-9.5-8.29-14.14-2.71-4.36-6.62-6.41-11.49-3.83-5.14,2.73-5.71,7.18-3.35,12.19.61,1.29,1.35,2.51,2,3.77q21,39.27,42.06,78.53c1.09,2,2.36,4,3.84,6.5Z"/><path class="cls-1" d="M514.33,1011.63c.13-3.08.37-6.16.37-9.25q0-166.41-.14-332.83c0-6.34,1.43-9.08,7.93-10.48,11.51-2.48,20.67-9.34,28.12-18.43,11.62-14.18,23.37-28.25,34.83-42.56,5.78-7.22,12.72-9.69,21.93-8.56,36.78,4.5,66.56,21.25,90.1,49.71,21.69,26.23,43.65,52.25,65.51,78.33,10.5,12.53,23.2,11.84,32-2.16Q838.84,646,882.3,576.46c8.1-13,19.2-20.81,34.57-22.29,8.29-.8,16.56-1.76,24.87-2.39a18.15,18.15,0,0,0,15-9.41c3.17-5.31,6-10.83,9.44-16,11.19-16.81,36.22-16.1,44.67,1.81,4.22,8.95,3.49,18.8-1.49,28q-48,89.18-95.9,178.46-35.12,65.34-70.35,130.64c-22.88,42.38-71.49,49.72-105.8,16-8.84-8.67-17.87-17.16-26.4-26.12a11.9,11.9,0,0,1-3-8.53,290,290,0,0,0-3.83-95.84c-.2-.93-.52-1.83-.77-2.75-1.55-5.64-5.06-8.93-11-7.23-5.76,1.66-7.25,6.05-6,11.86,6.75,30.75,8.58,61.8,3.57,92.91-3.17,19.68-8.49,39-11.76,58.68a299.25,299.25,0,0,0-2.76,79.7c1.11,10.9,1.17,21.07-9.73,27.57ZM947.67,634.16c16.25-30.46,32.3-60.32,48.08-90.33,2.28-4.33.6-8.54-3.87-10.85s-8.44-.74-11.06,3.34c-3.22,5-6,10.24-9.09,15.33-6,10-14.67,16.05-26.37,17.35-8.74,1-17.5,1.77-26.26,2.55-8,.72-14.87,3.94-19.32,10.64-4.95,7.46-9.15,15.42-14.08,23.86ZM602.7,793c8.32,0,16.63-.06,24.95,0,5.88.05,9.94-2.5,10.13-8.51s-3.61-9-9.58-9c-16.87,0-33.74,0-50.61,0-6,0-9.88,2.86-9.82,8.8s4.06,8.72,10,8.69C586.07,793,594.39,793,602.7,793Z"/><path class="cls-1" d="M594.41,555.26c-61.19,36.36-121.36,35.34-181.55-3.53-6.87,13.32-18.4,20.82-33.26,23.48a5.92,5.92,0,0,1-1.4.29c-19.19-1.65-35.89,5.43-52.76,13.57-13.14,6.34-27.24,6.24-40.24-2.18-11.5-7.46-16.48-17.87-14.89-31.61.45-3.88.6-8.34-.85-11.8-11.22-26.86-2.73-48.66,16.68-67.84a66,66,0,0,1,7.55-6.54c5-3.6,7.29-8.32,7.91-14.44,2.57-25.73,13-47.71,33.2-64.15,12.88-10.5,21.78-23.58,29.55-38C395.59,294.7,444,263.17,510,264.88c66.26,1.72,113.43,35.5,141.33,95.46,9,19.28,20.48,35.61,38.85,47,16.21,10.08,21.23,26.23,20.69,44.34a100.66,100.66,0,0,1-3,21.13c-2,7.91-1.08,14.64,3.32,21.68,10.91,17.47,9.35,30.38-3.84,46.16-2.75,3.29-4.46,7.83-5.54,12.07-5.72,22.47-18.32,32.46-41.61,31.58-24.68-.93-46.57-8.83-63.78-27.4A19,19,0,0,0,594.41,555.26Zm-225-99.63c15,69.24,87.95,124.43,170.85,104.06,69-17,122.63-96.77,104.17-154.66-40.66-1.23-78.41-10.31-106.13-43.34-4.28,6.77-7.8,13-12,18.77-24.32,33.85-58.24,53.45-97.72,63.73C409.43,449.19,389.58,451.82,369.45,455.63Z"/><path class="cls-1" d="M721.12,184.89q-50.32,0-100.65,0c-12.17,0-15.45-5.31-10.07-16.21,8.31-16.82,16.83-33.55,24.93-50.47A28.14,28.14,0,0,0,638,106.66c.21-30.93.11-61.86.13-92.79,0-12,1.8-13.86,13.47-13.86H792.23c10.56,0,13,2.43,13,13,0,31.17-.08,62.34.14,93.51A28.13,28.13,0,0,0,808.13,118c7.88,16.5,16.16,32.81,24.28,49.21,6.32,12.76,3.38,17.63-10.65,17.64Q771.44,184.91,721.12,184.89ZM656.06,17.83v87.51h131V17.83Zm-25,149H812.47C805.46,152.67,799,139.23,792,126c-.79-1.51-3.79-2.65-5.76-2.65q-64.62-.23-129.23,0c-1.95,0-4.87,1.27-5.68,2.82C644.48,139.4,638,152.8,631,166.8Z"/><path class="cls-1" d="M189.08,313c0,12.13-.14,24.26.07,36.38.09,5.39-1.91,9.09-6.68,11.52-26.7,13.57-53.85,18.53-81.85,4-20-10.38-40.12-10.17-60.49-1.52C36,365.13,32,367.21,27.87,369.1c-8.65,4-14.67.45-14.74-9.08-.15-21.16,1-42.41-.42-63.47-1-14.81,4.85-21.61,17.81-27,26.88-11.1,52.8-12.08,79,1.6C131,282.4,152,277.88,172.35,267.8c11.7-5.79,16.7-3,16.73,10.26C189.11,289.71,189.09,301.36,189.08,313ZM30.84,347.94c3.43-1.28,5.81-2.19,8.21-3.06,23.06-8.3,45.87-8.08,67.65,3.65,19.79,10.66,39.29,8.37,59.2,1.08,4.58-1.68,5.9-4.28,5.76-9-.36-11.89-.12-23.79-.12-35.69V289.15c-1.21-.29-1.47-.44-1.67-.39-1.6.44-3.19.89-4.77,1.38-22.93,7-45.15,7.08-67-4.66-21.31-11.44-42.76-8.14-63.63,2.06-1.57.77-3.44,3-3.47,4.57C30.75,310.37,30.84,328.63,30.84,347.94Z"/><path class="cls-1" d="M250.9,92.44c0-46.09,37.39-83.64,83.37-83.7s83.49,37.33,83.79,83.42-37.43,84-83.86,83.9A83.36,83.36,0,0,1,250.9,92.44Zm149.35.21c.05-36.69-29.6-66.47-66-66.33a66.14,66.14,0,1,0,66,66.33Z"/><path class="cls-1" d="M1007.28,263.77a2.09,2.09,0,0,1,0,.71c-9.08,21.54-10,46.42-28.25,64.21-29.42,28.77-58.23,58.15-87.32,87.26-7.92,7.93-11,7.93-18.91.05-9.6-9.58-19.22-19.12-28.72-28.79-5.8-5.91-5.83-10,0-15.89q47.84-48,95.85-95.87a20.33,20.33,0,0,1,7.73-4.76c15.34-5.05,30.75-9.87,46.18-14.6C1001.6,253.71,1007.15,257,1007.28,263.77ZM883.19,400.49c1.56-1.88,3.08-4,4.91-5.89C913.62,369,938.71,342.9,965,318.05c11.81-11.18,13.47-25.76,19.72-40.53-8.16,2.57-14.59,5-21.24,6.57-7.75,1.78-13.58,5.89-19.08,11.49-23.67,24.1-47.61,47.94-71.55,71.77-3.86,3.84-8.21,7.18-12.13,10.57Z"/><path class="cls-1" d="M525.79,40.16c2.33.32,5.28-.13,6.87,1.13,2.67,2.13,6.39,5.51,6.17,8.06-.27,3.07-3.69,7.38-6.65,8.34a20.43,20.43,0,0,1-13.13-.75c-2.7-1.13-5.73-5.66-5.51-8.42s4-5.7,6.68-7.9c1.15-.92,3.65-.15,5.54-.15Z"/><path class="cls-1" d="M137.51,232c1.47,1.85,4.82,4.55,6.05,8,1.55,4.39-6.61,15.27-11.46,16.44s-8.43-1-10.23-5.41C119.36,244.85,128.42,232,137.51,232Z"/><path class="cls-1" d="M76.92,383.58c-1.76,5.83-2,10.62-4.49,13.72-2,2.54-7.07,4.81-9.82,4s-5.65-5.49-6-8.75A17.24,17.24,0,0,1,60,381.26c1.87-2.5,6.35-4.86,9.14-4.35C72.13,377.46,74.54,381.4,76.92,383.58Z"/><path class="cls-1" d="M46.43,436.17c.92-4.49,1-8,2.41-10.9,1.09-2.31,3.83-5.57,5.63-5.45,3.47.23,7.78,1.72,10,4.23,3.29,3.82.34,17.5-4.12,19.25-3.12,1.22-7.63.55-10.87-.82C47.62,441.71,47.14,437.8,46.43,436.17Z"/><path class="cls-1" d="M481,58.58c-7.21.17-11.59-2.86-11.92-8.23S472.49,41.72,480,41c10.14-1,15,1.47,15.42,7.87S491,58.34,481,58.58Z"/><path class="cls-1" d="M950,407.71c-3.23-2.66-6.24-4.08-7.52-6.44a25.4,25.4,0,0,1-3.38-11.42c0-2.78,1.9-6.9,4.16-8,2.55-1.28,8.68-.94,9.37.52a56.8,56.8,0,0,1,5.09,18.31C957.87,402.55,953.15,404.93,950,407.71Z"/><path class="cls-1" d="M876.74,245.82c-6-.19-15.1-11.79-13.52-17.61,1.37-5,4.91-7.44,10.18-6.64,4.74.73,12.61,11.1,12.31,16A8.78,8.78,0,0,1,876.74,245.82Z"/><path class="cls-1" d="M962.4,449c-9.85-1-10.1-7.43-11.58-13.12-1.34-5.16-.93-10,4.34-12,2.72-1,8.69-.13,9.37,1.5a51.07,51.07,0,0,1,3.9,17.94C968.48,445.49,963.9,447.71,962.4,449Z"/><path class="cls-1" d="M41.41,477.17c.35-10.37,3.23-14.64,9.69-14.34s8.64,4.74,7.82,15.16c-.48,6.15-2.28,10.8-9.37,10.81C43.87,488.8,41.15,484.72,41.41,477.17Z"/><path class="cls-1" d="M583,55c-.55,4.73-3.92,7.51-9.38,7.54-11,.06-16.73-3.56-16.56-10.2.14-5.31,4-8.44,10.14-8.29C578.2,44.32,583.22,47.5,583,55Z"/><path class="cls-1" d="M156.08,221.65c-4.45-.22-7.6-2.94-8.09-8.19-.51-5.57,8.68-16,14.06-15.94s8.38,3.16,9,8.27C171.7,211.22,162.36,221.43,156.08,221.65Z"/><path class="cls-1" d="M849.2,211.55c-5.35-.11-15-10.3-14.45-15.62.54-5.13,3.66-8.24,8.89-8.41s14.74,10.27,14.48,15.67A9,9,0,0,1,849.2,211.55Z"/><path class="cls-1" d="M201.47,173.94c-.18,6.39-10,15.63-15.48,15.23s-8.14-3.67-8.23-8.84c-.1-5.49,10.09-14.91,15.48-14.49S201.08,169.57,201.47,173.94Z"/><path class="cls-1" d="M234.66,145.76c0,5.32-10,14.61-15.67,14.2-5.23-.37-8.22-3.56-8.5-8.72-.3-5.36,9.88-14.25,15.77-14.12A8.4,8.4,0,0,1,234.66,145.76Z"/><path class="cls-1" d="M976,479.91c.73,7.16-1.25,11.28-7.32,12.31-5.28.89-9.23-3-10-9.44-.28-2.35-.5-4.71-.55-7.07-.12-5.64,2.75-9.2,8.28-9.55,5.27-.33,8.2,3.08,9.09,8.11A49.14,49.14,0,0,1,976,479.91Z"/><path class="cls-1" d="M436.26,63.29c-6,.23-9.74-1.74-10.57-7.1-.86-5.63,2.08-9,7.47-10.2a68.81,68.81,0,0,1,7.69-1.25c5.48-.59,9.46,1.64,10.44,7.16s-2,9-7.45,10.16C441.07,62.65,438.25,63,436.26,63.29Z"/><path class="cls-1" d="M900.47,280.05c-5.82.1-12.81-7.84-12.49-13.82.29-5.21,3.35-8.28,8.52-8.66s12.25,8,11.87,13.83C908,276.55,905,279.46,900.47,280.05Z"/><path class="cls-1" d="M623.17,62.44c-.47,4.72-3.4,7.78-9.16,7.74-7.9-.06-13.55-4-13.8-9.58a8.78,8.78,0,0,1,9-9.05C617.41,51.4,623.16,55.5,623.17,62.44Z"/><path class="cls-1" d="M721.38,149.87c-12.12,0-24.25,0-36.37,0-7.33,0-11.58-3.24-11.79-8.61-.22-5.62,4.18-9.16,11.92-9.18q36.36-.1,72.73,0c7.87,0,12.16,3.33,12.11,9s-4.36,8.81-12.23,8.84C745.62,149.91,733.5,149.87,721.38,149.87Z"/><path class="cls-1" d="M118.67,317.21A17.47,17.47,0,1,1,101,299.76,17.21,17.21,0,0,1,118.67,317.21Z"/><path class="cls-1" d="M347.46,71.42c4.72,18.07-4,29.41-18.72,38-3.66,2.15-6.72,5.29-10.25,7.68-4.29,2.9-8.73,2.78-12.1-1.34-3.63-4.45-2.69-9,1.54-12.56,5.84-4.86,12.22-9.08,17.88-14.12a13,13,0,0,0,4-8.09c.52-8.76.11-17.57.22-26.36.08-6.92,3.3-10.67,8.91-10.38,6.26.32,8.53,4.26,8.5,10.06S347.46,65.72,347.46,71.42Z"/></g></g></svg>