<svg id="noun_Home_1221664" xmlns="http://www.w3.org/2000/svg" width="24" height="24" viewBox="0 0 24 24">
  <metadata><?xpacket begin="﻿" id="W5M0MpCehiHzreSzNTczkc9d"?>
<x:xmpmeta xmlns:x="adobe:ns:meta/" x:xmptk="Adobe XMP Core 5.6-c142 79.160924, 2017/07/13-01:06:39        ">
   <rdf:RDF xmlns:rdf="http://www.w3.org/1999/02/22-rdf-syntax-ns#">
      <rdf:Description rdf:about=""/>
   </rdf:RDF>
</x:xmpmeta>
                                                                                                    
                                                                                                    
                                                                                                    
                                                                                                    
                                                                                                    
                                                                                                    
                                                                                                    
                                                                                                    
                                                                                                    
                                                                                                    
                                                                                                    
                                                                                                    
                                                                                                    
                                                                                                    
                                                                                                    
                                                                                                    
                                                                                                    
                                                                                                    
                                                                                                    
                                                                                                    
                           
<?xpacket end="w"?></metadata>
<defs>
    <style>
      .cls-1 {
        fill: #fff;
        fill-rule: evenodd;
      }
    </style>
  </defs>
  <path id="Path_117" data-name="Path 117" class="cls-1" d="M24,12.8a0.645,0.645,0,0,1-.152.508,0.5,0.5,0,0,1-.455.17H21.206c-0.348,0-.4.067-0.4,0.461v8.224a1.816,1.816,0,0,1-.432,1.316,1.436,1.436,0,0,1-1.171.5H15.12c-0.55,0-.7-0.177-0.7-0.8V18.969a2.6,2.6,0,0,0-2.073-2.648,2.413,2.413,0,0,0-2.636,1.924,3.722,3.722,0,0,0-.113.914V23.2c0,0.609-.166.8-0.72,0.8H4.866A1.62,1.62,0,0,1,3.2,22.145V13.95c0-.373-0.062-0.442-0.394-0.442H0.753C0.172,13.508,0,13.328,0,12.7V11.077A1.428,1.428,0,0,1,.463,9.934Q5.041,5.678,9.615,1.418l0.84-.78a2.212,2.212,0,0,1,3.108,0l9.968,9.289A1.4,1.4,0,0,1,24,11Q24,11.916,24,12.8Z"/>
  <path id="Path_118" data-name="Path 118" class="cls-1" d="M20.16,5.833L18.288,4.1c-0.72-.667-1.44-1.34-2.16-2a0.463,0.463,0,0,1-.175-0.416c0.014-.182,0-0.367,0-0.552a0.911,0.911,0,0,1,.206-0.64A0.725,0.725,0,0,1,16.718.22Q18.057,0.2,19.4.22a0.794,0.794,0,0,1,.768.8C20.174,2.616,20.16,4.192,20.16,5.833Z"/>
</svg>
