<svg id="Component_2_1" data-name="Component 2 – 1" xmlns="http://www.w3.org/2000/svg" width="24" height="24" viewBox="0 0 24 24">
  <metadata><?xpacket begin="﻿" id="W5M0MpCehiHzreSzNTczkc9d"?>
<x:xmpmeta xmlns:x="adobe:ns:meta/" x:xmptk="Adobe XMP Core 5.6-c142 79.160924, 2017/07/13-01:06:39        ">
   <rdf:RDF xmlns:rdf="http://www.w3.org/1999/02/22-rdf-syntax-ns#">
      <rdf:Description rdf:about=""/>
   </rdf:RDF>
</x:xmpmeta>
                                                                                                    
                                                                                                    
                                                                                                    
                                                                                                    
                                                                                                    
                                                                                                    
                                                                                                    
                                                                                                    
                                                                                                    
                                                                                                    
                                                                                                    
                                                                                                    
                                                                                                    
                                                                                                    
                                                                                                    
                                                                                                    
                                                                                                    
                                                                                                    
                                                                                                    
                                                                                                    
                           
<?xpacket end="w"?></metadata>
<defs>
    <style>
      .cls-1 {
        fill: #fff;
        fill-rule: evenodd;
      }
    </style>
  </defs>
  <path class="cls-1" d="M2.4,0H8.8a2.4,2.4,0,0,1,2.4,2.4V8.8a2.4,2.4,0,0,1-2.4,2.4H2.4A2.4,2.4,0,0,1,0,8.8V2.4A2.4,2.4,0,0,1,2.4,0Z"/>
  <path class="cls-1" d="M15.2,0h6.4A2.4,2.4,0,0,1,24,2.4V8.8a2.4,2.4,0,0,1-2.4,2.4H15.2a2.4,2.4,0,0,1-2.4-2.4V2.4A2.4,2.4,0,0,1,15.2,0Z"/>
  <path class="cls-1" d="M2.4,12.8H8.8a2.4,2.4,0,0,1,2.4,2.4v6.4A2.4,2.4,0,0,1,8.8,24H2.4A2.4,2.4,0,0,1,0,21.6V15.2A2.4,2.4,0,0,1,2.4,12.8Z"/>
  <path class="cls-1" d="M15.2,12.8h6.4A2.4,2.4,0,0,1,24,15.2v6.4A2.4,2.4,0,0,1,21.6,24H15.2a2.4,2.4,0,0,1-2.4-2.4V15.2A2.4,2.4,0,0,1,15.2,12.8Z"/>
</svg>
