<svg xmlns="http://www.w3.org/2000/svg" viewBox="0 0 938.47 937.79"><defs><style>.cls-1{fill:#fff;}</style></defs><title>Asset 3</title><g id="Layer_2" data-name="Layer 2"><g id="Layer_1-2" data-name="Layer 1"><path class="cls-1" d="M628.73,0c-.39,5.22,2.76,7.47,7.2,8.77,15.12,4.45,30.32,8.65,45.3,13.49,15.44,5,30.66,10.66,46,16q18.4,6.38,36.86,12.62c19.33,6.49,38.66,13,58.06,19.29,14.33,4.66,28.87,8.69,43.14,13.53q30.3,10.29,60.29,21.48c7,2.61,11,8.57,12,16a111.63,111.63,0,0,1,.88,14.62q.06,343.68,0,687.36A156.72,156.72,0,0,1,937,842.64c-.89,7.07-5.27,11.3-12.26,12.43a84.55,84.55,0,0,1-13.18,1.21c-85,.06-170-.09-255,.22-10.39,0-17.46-2.39-22.31-12.44a157.8,157.8,0,0,0-46.94-57.19c-12.83-9.8-26.42-19-40.78-26.28-19.82-10-40.68-18-61.11-26.81-9.29-4-18.63-7.94-27.88-12a60.76,60.76,0,0,1-6.5-3.9l1.58-3a79,79,0,0,1,9-1c30.27,0,60.54.11,90.81.06,3.9,0,8-.15,11.65-1.4,5.37-1.86,7.65-6.36,7.63-12.1-.08-17.7.09-35.39-.13-53.09-.14-10.56-4.42-14.66-15.17-14.68-23.74-.06-47.5.29-71.24,0-4,0-11.1-1.78-11.36-3.55-.62-4.17,1.41-9.12,3.42-13.23,5.38-11,12.06-21.34,16.76-32.56,2.95-7.05,6.5-12,14.19-12.19,13.95-.32,27.9,0,41.86,0a72.72,72.72,0,0,0,10.44-.49c6.94-1,11-5.3,11-12.29.22-18.62.28-37.25,0-55.87-.13-8.45-5.42-13-14.82-13.18-12.1-.18-24.21.11-36.31.17-3.72,0-7.45.11-11.15-.14-9.74-.68-12.9-4.86-11.57-14.71,1.45-10.79,2.9-21.59,4.13-32.41,1.13-10,4.83-13.51,14.87-13.48,13,0,26.08.26,39.12.21,11.15-.06,15.67-4.52,15.79-15.77.18-17,.1-34,.13-51,0-10.33-3.83-14.5-14.26-14.56-19.79-.12-39.59-.18-59.37.27-7.2.17-12.63-1.9-16.91-7.63-5.83-7.8-11.17-16.13-18-23s-15.21-12-22.65-18.21c-2.74-2.28-4.73-5.47-7.06-8.25,3.33-1.54,6.65-4.4,10-4.42,35.63-.21,71.25-.07,106.87.19,15.61.11,18.45-2.38,18.53-17.94q.14-25.5.15-51c0-9.34-3.18-12.63-12.66-12.65q-68.11-.08-136.22,0c-11.66,0-14.87,4.45-14.4,16.18.65,16,.69,32.12.5,48.17,0,3.08-1.83,8.31-3.69,8.74-3.56.82-8.27-.17-11.58-2.05-7-4-13.41-9.05-20.12-13.58a18.19,18.19,0,0,0-5.55-2.89c-20.91-5.08-41.1-13.48-63.33-12.38-12.91.64-15.62-2.79-15.6-15.45.07-33.76,0-67.52.09-101.29,0-17.4,4.51-23,20.76-28.5C322,97,336.33,91.1,351,86.12S380.75,77,395.5,72.19c15-4.92,29.8-10.26,44.67-15.46,1.76-.61,3.38-1.62,5.15-2.16,15.3-4.67,30.73-9,45.91-14,14.73-4.87,29.1-10.84,43.83-15.69,16.07-5.29,32.38-9.81,48.57-14.73C589,8.53,595.88,8.55,595.2,0Zm107,489.18v.13h-32.8c-11.16,0-22.32-.19-33.48-.05-12.2.16-16.78,4.95-16.78,17.13,0,15.11.09,30.23,0,45.35s4.28,19.45,19.54,19.45q63.84,0,127.68,0c11.74,0,16.07-4.15,16.11-15.89q.11-25.11,0-50.23c0-11.73-4.41-15.94-16.1-15.93Q767.83,489.21,735.73,489.18ZM735.41,205v0H722.85c-18.84,0-37.68-.12-56.51.08-10.14.11-13.8,4.18-13.73,14.22q.09,12.21.18,24.42c.07,10-.23,20,.32,30,.49,8.82,4.57,12.29,13.43,12.78,2.55.14,5.11,0,7.67,0,41.63,0,83.25,0,124.88.11,13.19,0,16.69-3,16.82-16.18.17-17,.07-34,.19-50.93.08-11.36-2.89-14.5-14.41-14.53Q768.54,204.91,735.41,205Zm.22,142.55v.05c-22.56,0-45.12-.09-67.67,0-11.65.07-15.35,4.06-15.32,15.71,0,15.11.1,30.23.06,45.34-.05,16.68,3.79,20.36,20.57,20.33q62.79-.12,125.57,0c13.24,0,17-3.42,17.13-16.79.11-16.74.1-33.49.09-50.23,0-10.82-3.78-14.47-14.86-14.48ZM735.33,714v0c22.09,0,44.18,0,66.28,0,10,0,14.26-3.89,14.36-13.74q.28-26.5,0-53c-.14-10.79-4.36-14.7-15-14.7q-65.58,0-131.16.07c-12.56,0-17.09,4.64-17.12,17.41,0,15.12.1,30.24,0,45.35C652.55,710,656.42,714,671.14,714Z"/><path class="cls-1" d="M0,894.19c6,.58,7.55-3.72,8.43-8.2,3.27-16.63,11-31.23,21.91-43.77C39,832.3,48.25,822.33,59,815.05c16.65-11.25,34.49-20.9,52.47-29.92,11.94-6,25.1-9.49,37.55-14.54,11.57-4.69,23-9.75,34.34-15,8.36-3.89,16.16-9.17,24.77-12.25,3.86-1.38,9.49.21,13.64,2,12.11,5.21,23.87,11.22,35.79,16.86,7.13,3.38,14.72,6,21.31,10.22,3.8,2.41,6.44,7.05,8.84,11.13,2.68,4.58,4.32,9.75,6.74,14.5a16.2,16.2,0,0,1-.18,16c-17.68,33.32-29.13,68.24-27.83,106.57.5,14.61-2.21,17.15-16.81,17.15q-110.68.06-221.37.06c-8.11,0-15.76-.27-21.37-7.61-1.24-1.63-4.56-1.68-6.92-2.45Z"/><path class="cls-1" d="M303.05,287.4c16.37-2.29,34.6,3.59,51.76,13.17,6,3.36,11.05,8.43,16.68,12.5,3.53,2.55,7.11,5.31,11.09,6.92,8.82,3.58,18.13,6,26.83,9.78C425,336.61,435,349.22,442.66,364c17.49,33.63,15.16,69.31,10.79,105.08-1.31,10.77-5,21.25-6.47,32-.8,5.68-.72,12.26,1.39,17.46,7.33,18.07,7.75,36.55,2.94,54.75-2.21,8.37-8.32,16-13.8,23.14-7.13,9.23-13.17,18.26-16.69,30a100.52,100.52,0,0,1-24.89,41.37c-7.95,8.05-14.27,16.28-13.21,28.6.58,6.72-3.71,10.93-10,13.57-13,5.49-25.66,12-38.84,17.07-21.48,8.28-43.06,8.59-64.3-1.52-10.67-5.08-21.28-10.37-32.28-14.65-8.11-3.15-12.46-8.42-11.85-16.76.84-11.58-4.39-19.55-12.14-27.53-13-13.39-23.35-28.78-28.82-47a34.46,34.46,0,0,0-4.82-9.15c-6.93-10.17-15.39-19.55-20.73-30.47-5.53-11.33-9-23.92-11.57-36.33-1.15-5.57,1.13-12.51,3.59-18.05,5.37-12.06,7.23-23.79,5-37.19-5.67-33.88-7.91-68.23-.17-102,6.11-26.66,18.32-50.41,41-67.73C226.78,295.63,260.36,287.29,303.05,287.4Z"/><path class="cls-1" d="M476.38,937.78H363.28c-11.43,0-14.6-2.56-13.82-13.89,1.7-24.31-5.71-47-12-69.81-3.08-11.21-9.37-21.66-15-32-4.85-8.9-7.36-17.64-2.76-27.19,3.22-6.69,5.52-14.62,10.65-19.4,6-5.6,14.52-8.69,22.2-12.34,13.16-6.23,26.68-11.74,39.73-18.18,7-3.44,12.8-3.21,19.67.57,11.33,6.22,23.09,11.75,35,16.87,13.58,5.85,27.55,10.8,41.26,16.38,11.16,4.55,22.47,8.89,33.21,14.31,25.27,12.75,48.13,28.42,65.59,51.56,14.76,19.56,22.12,41.62,26.71,65.05,3.2,16.33-5.7,27.83-22.14,27.93-38.4.22-76.8.07-115.19.07Z"/></g></g></svg>