<svg xmlns="http://www.w3.org/2000/svg" viewBox="0 0 757.81 957.65"><defs><style>.cls-1{fill:#fff;}</style></defs><title>Asset 5</title><g id="Layer_2" data-name="Layer 2"><g id="Layer_1-2" data-name="Layer 1"><path class="cls-1" d="M0,830.26q9-43.05,17.9-86.1C26.58,702.12,35,660,44,618.05c9.11-42.55,33.09-74.5,72.51-92.86,28-13.05,57.4-23.06,86.84-34.69,12.07,23.36,23.89,46.21,36.3,70.22-8.4,2.78-16.23,5.41-24.08,8-5.94,1.93-11.94,3.68-17.87,5.64-15.17,5-19.78,15-13.54,29.8Q217.23,682.56,250.47,761q39.87,94.15,79.75,188.32c1.15,2.72,2,5.58,2.95,8.38h-3.26a68.69,68.69,0,0,0-8-1.12A2054.16,2054.16,0,0,1,88,938C46.2,932.25,18.3,908.76,4.83,868.6,2.78,862.5,1.59,856.11,0,849.86Z"/><path class="cls-1" d="M424.63,957.65q26-61.11,51.91-122.21,48.75-114.29,97.61-228.52c7.49-17.54,3.21-26.8-15.16-32.76-12.65-4.11-25.3-8.18-39.41-12.74l36.32-69.85c3.77,1.39,7,2.55,10.26,3.8,20.25,7.87,40.41,16,60.75,23.6,50.79,19,80,55.52,90.18,108.56,12.68,65.89,26.31,131.59,39.57,197.37a7.84,7.84,0,0,0,1.15,2.09v26.13a31.06,31.06,0,0,0-1.52,4.51C748.7,899.82,716.88,933,674.06,938c-58.55,6.93-117.41,11.27-176.18,16.24-21.63,1.83-43.38,2.29-65.08,3.37Z"/><path class="cls-1" d="M375.64,957.65Q350.2,898.07,324.79,838.5,277,726,229.35,613.39c-.95-2.23-1.76-4.52-3-7.84,8.4-2.76,16.5-5.42,24.6-8.06q8.52-2.76,17.07-5.48c17.84-5.71,22.27-16.35,13.72-33-5.82-11.34-11.67-22.66-17.09-34.72,35.51,24.08,74,37.84,117.19,37S462.76,545,498,520.3Q487.72,540,477.47,559.63q-12.54,24.11,13.32,32.6L532.87,606c-1.21,3-2.25,5.59-3.36,8.19Q458,781.72,386.47,949.26a88,88,0,0,0-2.67,8.39Z"/><path class="cls-1" d="M565.16,240.66C588.27,263.22,593,290.19,578,314.59a55.4,55.4,0,0,1-12.3,14c-4.42,3.54-6.29,7.28-7.21,12.74-10.5,61.83-38.86,113.45-89.73,151-58.9,43.5-131.56,41.21-189.24-5.88-46-37.53-72.3-86.79-81.94-145.1-.89-5.37-2.76-9.16-7.22-12.71-26.94-21.49-27.57-63.39-1.25-85.66,4.35-3.68,3.8-7,2.94-11.4-7-35.88-8.59-71.88-.24-107.71,14.33-61.5,52.78-99.92,113.78-115.07,56-13.9,111.39-12.49,164.12,13,57.72,27.89,94.47,73.08,105.84,137C579.56,181.35,579.08,206,565.16,240.66ZM321.59,163.84c-4.58,8.08-8.4,15.61-12.94,22.68-16.45,25.6-38.34,44.39-68.29,52.24-5.57,1.47-7.47,3.49-7.12,9.23.59,9.89-3.36,17.56-13.29,21-7.14,2.44-12,6.89-12,14.66.08,8.35,2.86,15.31,12,18.27s12.87,9.8,13.65,19.21c4.11,50.06,24.11,93,60.55,127.41,51.17,48.35,115.07,48.68,166.75.78C498,415,518,371.76,522.42,321.47c.82-9.29,4.18-16.46,13.32-19.46,9-2.93,12.41-9.47,12.45-18,0-8.08-4.92-12.68-12.4-15.24-8.77-3-13.39-9.74-12.82-18.72.44-6.82,2.46-13.66,4.58-20.23,3.31-10.31,7.3-20.4,11-30.59C458.12,229.55,385.82,223.07,321.59,163.84Z"/></g></g></svg>