<svg id="noun_live_chat_2991345" data-name="noun_live chat_2991345" xmlns="http://www.w3.org/2000/svg" width="24" height="24" viewBox="0 0 24 24">
  <metadata><?xpacket begin="﻿" id="W5M0MpCehiHzreSzNTczkc9d"?>
<x:xmpmeta xmlns:x="adobe:ns:meta/" x:xmptk="Adobe XMP Core 5.6-c142 79.160924, 2017/07/13-01:06:39        ">
   <rdf:RDF xmlns:rdf="http://www.w3.org/1999/02/22-rdf-syntax-ns#">
      <rdf:Description rdf:about=""/>
   </rdf:RDF>
</x:xmpmeta>
                                                                                                    
                                                                                                    
                                                                                                    
                                                                                                    
                                                                                                    
                                                                                                    
                                                                                                    
                                                                                                    
                                                                                                    
                                                                                                    
                                                                                                    
                                                                                                    
                                                                                                    
                                                                                                    
                                                                                                    
                                                                                                    
                                                                                                    
                                                                                                    
                                                                                                    
                                                                                                    
                           
<?xpacket end="w"?></metadata>
<defs>
    <style>
      .cls-1 {
        fill: #fff;
        fill-rule: evenodd;
      }
    </style>
  </defs>
  <g id="noun_freelancer_2909387">
    <path id="Path_125" data-name="Path 125" class="cls-1" d="M0.413,9.761a0.208,0.208,0,0,0,.205.005A2.149,2.149,0,0,1,1.6,9.456a1.506,1.506,0,0,1,.79.193,1.556,1.556,0,0,0,.775.2,2.243,2.243,0,0,0,1.23-.345,0.209,0.209,0,0,0,.087-0.17V7.478a0.209,0.209,0,0,0-.328-0.17,1.862,1.862,0,0,1-.989.268,1.14,1.14,0,0,1-.589-0.159A1.9,1.9,0,0,0,1.6,7.181a2.584,2.584,0,0,0-1.173.36,0.208,0.208,0,0,0-.11.184V9.582A0.209,0.209,0,0,0,.413,9.761Zm0.315-1.91A2.007,2.007,0,0,1,1.6,7.6a1.506,1.506,0,0,1,.79.193,1.556,1.556,0,0,0,.775.2,2.4,2.4,0,0,0,.9-0.174v1.4a1.949,1.949,0,0,1-.9.216,1.14,1.14,0,0,1-.589-0.159A1.9,1.9,0,0,0,1.6,9.039a2.219,2.219,0,0,0-.867.211v-1.4h0Z"/>
    <path class="cls-1" d="M2.4,8.933a0.417,0.417,0,1,1,.417-0.417A0.417,0.417,0,0,1,2.4,8.933Z"/>
    <path id="Path_126" data-name="Path 126" class="cls-1" d="M7.915,5.177A1.982,1.982,0,1,0,5.936,3.2,1.983,1.983,0,0,0,7.915,5.177Zm0-3.547A1.565,1.565,0,1,1,6.353,3.2,1.565,1.565,0,0,1,7.915,1.63Z"/>
    <path id="Path_127" data-name="Path 127" class="cls-1" d="M7.41,3.826a0.208,0.208,0,0,0,.127-0.043l0.6-.461a0.205,0.205,0,0,0,.078-0.158,0.207,0.207,0,0,0,.015-0.073V2.256a0.208,0.208,0,1,0-.417,0V3.044l-0.528.407A0.209,0.209,0,0,0,7.41,3.826Z"/>
    <path id="Path_128" data-name="Path 128" class="cls-1" d="M19.936,10.133l0.8,0.8a0.208,0.208,0,0,0,.294,0l2.35-2.355a0.209,0.209,0,0,0,.05-0.08l0.405-1.176a0.208,0.208,0,0,0-.259-0.267l-1.2.378a0.207,0.207,0,0,0-.085.052l-2.35,2.355A0.209,0.209,0,0,0,19.936,10.133Zm2.609-2.318L23.3,7.575l-0.255.74L20.88,10.488l-0.5-.5Z"/>
    <path id="Path_129" data-name="Path 129" class="cls-1" d="M10.993,16.188l-0.88-1.074a0.444,0.444,0,0,0-.379-0.159,3.145,3.145,0,0,0-2.172,1.119L5.907,18.052a0.416,0.416,0,0,1-.668-0.04L3.625,15.534h0l-0.5-.887a1.041,1.041,0,0,0-.814-0.524l-0.612-.054a0.417,0.417,0,0,1-.323-0.205L1.152,13.49a0.619,0.619,0,0,0-1.079.605L1.4,16.562l2.7,5.011a1.518,1.518,0,0,0,2.4.363L7.249,21.2a6.542,6.542,0,0,1,.092-2.509,0.208,0.208,0,1,1,.4.111,6.238,6.238,0,0,0-.114,2.095,9.4,9.4,0,0,1,.382,3.6,0.441,0.441,0,0,0,.433.5h3.325V16.645A1.3,1.3,0,0,1,10.993,16.188ZM0.522,13.625a0.2,0.2,0,0,1,.1-0.025,0.2,0.2,0,0,1,.175.1l0.218,0.374a0.834,0.834,0,0,0,.646.411l0.612,0.054a0.625,0.625,0,0,1,.488.315l0.285,0.5-1.464.664L0.441,13.9A0.2,0.2,0,0,1,.522,13.625Z"/>
    <path id="Path_130" data-name="Path 130" class="cls-1" d="M15.725,14.844a0.887,0.887,0,0,0,.9-0.808A0.426,0.426,0,0,1,16.74,13.8a0.84,0.84,0,0,0,.055-1.151,0.43,0.43,0,0,1-.061-0.356,1.375,1.375,0,0,0-.448-1.679A2.179,2.179,0,0,1,15.448,9.6c-0.008-.021-0.016-0.042-0.025-0.062l0-.013v0a3.74,3.74,0,0,0-6.608-.514h0L8.8,9.032a3.769,3.769,0,0,0-.207.374,2.216,2.216,0,0,1-.642.815h0a2.234,2.234,0,0,0-.821,1.6,0.356,0.356,0,0,1-.14.26,1.478,1.478,0,0,0-.613,1.789,0.4,0.4,0,0,1,.03.244,0.739,0.739,0,0,0,.5.872,1.507,1.507,0,0,0,1.29-.271A0.36,0.36,0,0,1,8.4,14.653a1.323,1.323,0,0,0,1.371-.6,3.734,3.734,0,0,0,4.3.083A2.085,2.085,0,0,0,15.725,14.844Zm-7-3.085c2.469-.169,3.543-1.275,4.009-2.206a3.044,3.044,0,0,0,2.541,1.041A3.33,3.33,0,0,1,8.729,11.759Z"/>
    <path id="Path_131" data-name="Path 131" class="cls-1" d="M14.415,5.287a0.208,0.208,0,0,0,.177.1h4.982a0.209,0.209,0,0,0,.186-0.3l-0.7-1.415V1.213A0.208,0.208,0,0,0,18.85,1H15.309a0.208,0.208,0,0,0-.208.209V3.681l-0.7,1.4A0.209,0.209,0,0,0,14.415,5.287Zm1.1-3.866h3.124V3.508H15.517V1.422Zm-0.073,2.5H18.72l0.517,1.043h-4.31Z"/>
    <path id="Path_132" data-name="Path 132" class="cls-1" d="M18.017,4.134H16.142a0.209,0.209,0,0,0,0,.417h1.875A0.209,0.209,0,0,0,18.017,4.134Z"/>
    <path id="Path_133" data-name="Path 133" class="cls-1" d="M23.684,13.258a0.617,0.617,0,0,0-.83.231l-0.218.374a0.417,0.417,0,0,1-.323.205l-0.612.054a1.041,1.041,0,0,0-.814.524l-0.51.9h0l-1.6,2.464a0.416,0.416,0,0,1-.668.04l-1.654-1.978a3.146,3.146,0,0,0-2.172-1.119,0.444,0.444,0,0,0-.379.159l-0.879,1.073a1.3,1.3,0,0,1-.837.467V24.99h3.384a0.441,0.441,0,0,0,.433-0.5,9.312,9.312,0,0,1,.33-3.424,6.261,6.261,0,0,0-.092-2.268,0.208,0.208,0,1,1,.4-0.111,6.538,6.538,0,0,1,.1,2.484l0.777,0.763a1.517,1.517,0,0,0,2.4-.364l2.7-5.011,1.322-2.467A0.62,0.62,0,0,0,23.684,13.258Zm-8.792,6.525h-1.25a0.209,0.209,0,0,1,0-.417h1.25A0.209,0.209,0,0,1,14.892,19.783Zm6.845-5.244,0.612-.054A0.835,0.835,0,0,0,23,14.074l0.218-.374a0.2,0.2,0,0,1,.175-0.1,0.2,0.2,0,0,1,.1.025,0.2,0.2,0,0,1,.081.273l-1.138,2.123-1.464-.664,0.285-.5A0.625,0.625,0,0,1,21.738,14.539Z"/>
    <path id="Path_134" data-name="Path 134" class="cls-1" d="M22.685,10.357c-0.02-.071-0.04-0.139-0.059-0.2a0.208,0.208,0,1,0-.4.12c0.019,0.062.038,0.128,0.058,0.2a0.208,0.208,0,0,0,.2.151,0.211,0.211,0,0,0,.057-0.008A0.209,0.209,0,0,0,22.685,10.357Z"/>
    <path id="Path_135" data-name="Path 135" class="cls-1" d="M22.9,12.665h0.018a0.208,0.208,0,0,0,.19-0.226C23.1,12.368,23.1,12.3,23.088,12.224a0.206,0.206,0,0,0-.232-0.182,0.208,0.208,0,0,0-.181.232c0.008,0.067.015,0.134,0.021,0.2A0.208,0.208,0,0,0,22.9,12.665Z"/>
    <path id="Path_136" data-name="Path 136" class="cls-1" d="M22.537,11.471a0.208,0.208,0,0,0,.2.164,0.2,0.2,0,0,0,.044,0,0.209,0.209,0,0,0,.159-0.248q-0.023-.1-0.046-0.206a0.208,0.208,0,1,0-.406.094C22.507,11.336,22.522,11.4,22.537,11.471Z"/>
    <path id="Path_137" data-name="Path 137" class="cls-1" d="M19.81,5.794l0.137,0.152a0.209,0.209,0,1,0,.311-0.278l-0.142-.157A0.208,0.208,0,1,0,19.81,5.794Z"/>
    <path id="Path_138" data-name="Path 138" class="cls-1" d="M20.588,6.743A0.208,0.208,0,1,0,20.925,6.5q-0.062-.086-0.127-0.17a0.208,0.208,0,1,0-.332.252Z"/>
    <path id="Path_139" data-name="Path 139" class="cls-1" d="M21.114,7.536a0.208,0.208,0,1,0,.357-0.214L21.4,7.2a0.208,0.208,0,1,0-.354.219Z"/>
    <path id="Path_140" data-name="Path 140" class="cls-1" d="M13.362,2.458l0.2,0.028,0.031,0a0.209,0.209,0,0,0,.03-0.415l-0.211-.029A0.209,0.209,0,0,0,13.362,2.458Z"/>
    <path id="Path_141" data-name="Path 141" class="cls-1" d="M11.309,2.395h0.014l0.2-.011a0.209,0.209,0,0,0,.2-0.218,0.2,0.2,0,0,0-.217-0.2L11.3,1.978A0.209,0.209,0,0,0,11.309,2.395Z"/>
    <path id="Path_142" data-name="Path 142" class="cls-1" d="M14.367,2.635L14.5,2.666a0.215,0.215,0,0,0,.049.006A0.209,0.209,0,0,0,14.6,2.26L14.46,2.229A0.209,0.209,0,0,0,14.367,2.635Z"/>
    <path id="Path_143" data-name="Path 143" class="cls-1" d="M10.275,2.51l0.033,0,0.2-.031a0.209,0.209,0,0,0-.059-0.413L10.242,2.1A0.209,0.209,0,0,0,10.275,2.51Z"/>
    <path id="Path_144" data-name="Path 144" class="cls-1" d="M12.344,2.377l0.2,0.009h0.011a0.209,0.209,0,0,0,.01-0.417L12.357,1.96A0.209,0.209,0,0,0,12.344,2.377Z"/>
    <path id="Path_145" data-name="Path 145" class="cls-1" d="M3.707,6.257a0.208,0.208,0,0,0,.16-0.075C3.91,6.13,3.954,6.078,4,6.027a0.208,0.208,0,1,0-.314-0.274c-0.047.053-.093,0.108-0.138,0.162A0.209,0.209,0,0,0,3.707,6.257Z"/>
    <path id="Path_146" data-name="Path 146" class="cls-1" d="M4.413,5.49a0.208,0.208,0,0,0,.146-0.06c0.048-.048.1-0.1,0.146-0.142a0.208,0.208,0,0,0-.286-0.3q-0.077.073-.153,0.148A0.209,0.209,0,0,0,4.413,5.49Z"/>
    <path id="Path_147" data-name="Path 147" class="cls-1" d="M3.077,7.088A0.208,0.208,0,0,0,3.249,7q0.058-.084.117-0.167a0.208,0.208,0,1,0-.338-0.243q-0.062.087-.122,0.175A0.209,0.209,0,0,0,3.077,7.088Z"/>
    <path id="Path_148" data-name="Path 148" class="cls-1" d="M5.189,4.8A0.207,0.207,0,0,0,5.32,4.748L5.48,4.62a0.209,0.209,0,0,0-.257-0.329l-0.166.132A0.209,0.209,0,0,0,5.189,4.8Z"/>
    <path id="Path_149" data-name="Path 149" class="cls-1" d="M0.993,12.148q-0.01.105-.018,0.212a0.209,0.209,0,0,0,.192.224H1.182a0.209,0.209,0,0,0,.207-0.193q0.008-.1.017-0.2A0.208,0.208,0,0,0,1.22,11.96,0.206,0.206,0,0,0,.993,12.148Z"/>
    <path id="Path_150" data-name="Path 150" class="cls-1" d="M1.738,10.378q0.027-.1.056-0.2a0.208,0.208,0,1,0-.4-0.117c-0.02.068-.039,0.135-0.058,0.2A0.208,0.208,0,1,0,1.738,10.378Z"/>
    <path id="Path_151" data-name="Path 151" class="cls-1" d="M1.516,11.376c0.012-.067.024-0.134,0.037-0.2A0.208,0.208,0,1,0,1.144,11.1q-0.02.1-.038,0.21a0.209,0.209,0,0,0,.17.241l0.036,0A0.208,0.208,0,0,0,1.516,11.376Z"/>
  </g>
</svg>
